<svg width="415" height="415" viewBox="0 0 415 415" fill="none" xmlns="http://www.w3.org/2000/svg">
<path d="M60.3587 159.425C89.1831 159.425 111.287 173.14 111.287 207.365C111.287 235.043 93.2853 252.59 68.1057 252.59H28.5706V159.425H60.3587ZM59.7893 188.586V224.665H61.7258C72.0924 224.665 80.0695 219.475 80.0696 207.243C80.0696 194.145 73.1195 188.586 61.7258 188.586H59.7893Z" fill="#231F20"/>
<path fill-rule="evenodd" clip-rule="evenodd" d="M173.414 204.772L200.301 159.424H166.236L151.197 189.326C149.488 192.663 147.55 195.998 146.866 199.829H146.183L146.866 159.424H116.446V252.59H146.866L146.183 213.544H146.866C147.55 217.374 150.285 220.835 152.108 224.418L166.919 252.59H203.15L173.414 204.772Z" fill="#231F20"/>
<path fill-rule="evenodd" clip-rule="evenodd" d="M210.258 159.424H240.221L268.248 211.073H269.16C267.906 203.288 266.539 195.258 266.539 187.349V159.424H296.391V252.59H266.539L239.081 203.66H238.169C239.196 210.084 240.107 216.139 240.107 222.317V252.59H210.258V159.424Z" fill="#231F20"/>
<path fill-rule="evenodd" clip-rule="evenodd" d="M337.389 159.424L346.959 183.766H347.868C348.782 180.801 349.58 177.836 350.718 174.993L356.87 159.424H391.961L362.567 212.432V252.59H332.032V212.432L302.069 159.424H337.389Z" fill="#231F20"/>
</svg>
