<svg width="437" height="307" viewBox="0 0 437 307" fill="none" xmlns="http://www.w3.org/2000/svg">
<path fill-rule="evenodd" clip-rule="evenodd" d="M181.969 128.153C189.448 128.207 202.399 124.089 204.908 130.337C207.969 137.964 198.071 142.032 194.711 145.632C186.879 154.028 182.587 165.576 167.401 166.753C154.391 200.435 142.003 234.829 129.896 270.896C128.214 275.901 127.043 283.024 122.247 283.276C117.998 283.5 116 278.485 113.509 275.996C109.112 271.597 101.831 268.195 100.764 262.887C100.065 259.409 101.89 254.29 102.948 250.504C109.986 225.349 119.762 199.289 128.073 175.856C113.729 178.261 97.9636 182.401 82.9193 185.324C74.0235 208.129 65.3047 232.021 56.7031 256.331C54.3828 262.887 50.7631 275.647 41.7735 272.717C33.8516 270.137 40.9219 255.099 42.138 251.597C49.7057 229.759 56.8593 208.738 65.0765 188.237C62.4688 187.093 59.3672 186.72 57.0661 185.324C52.8932 182.79 50.064 176.166 45.0495 172.943C40.9099 170.281 32.9584 169 34.4896 162.019C35.1473 159.023 41.1979 157.5 44.3213 156.556C56.3948 152.909 68.2875 150.036 80.3708 147.088C91.9677 118.247 104.25 86.7386 116.422 57.1453C118.177 52.8773 119.57 47.8893 121.884 44.7653C123.875 42.076 130.353 36.872 134.992 40.0306C138.467 42.396 136 50.504 134.629 53.868C122.586 83.4306 110.664 112.736 99.3063 142.355C114.075 139.401 128.76 136.365 143.732 133.615C151.896 112.743 162.767 87.3533 172.136 65.1573C174.855 58.7146 177.772 46.7146 183.059 44.0373C185.893 42.6013 191.8 41.5053 195.805 40.0306C199.657 38.612 204.232 36.3546 208.185 36.0253C221.755 34.8986 209.939 56.3066 208.185 60.7866C199.199 83.7293 190.935 105.901 181.969 128.153Z" fill="#DE2124"/>
<path fill-rule="evenodd" clip-rule="evenodd" d="M179.417 229.02C179.7 229.102 180.136 229.031 180.145 229.385C183.2 228.92 185.161 227.36 186.7 225.378C185.688 222.993 185.56 219.721 183.787 218.097C182.123 221.229 177.548 224.708 179.417 229.02ZM187.428 195.156C189.547 194.675 192.353 191.86 192.163 187.873C188.205 183.584 185.225 190.884 187.428 195.156ZM191.8 208.628C192.353 211.957 193.917 214.278 194.347 217.732C196.74 216.264 205.589 209.721 207.092 217.002C208.421 223.449 202.148 227.984 199.445 232.297C200.596 236.162 204.037 241.344 201.265 245.771C196.628 248.131 192.943 244.466 192.163 240.672C188.476 242.914 185.752 245.819 181.239 246.499C169.755 248.229 163.572 240.868 163.396 231.205C163.147 217.535 174.195 211.269 179.781 203.529C177.924 197.516 176.275 193.602 176.868 188.601C178.773 172.551 205.497 172.089 203.085 190.421C202.032 198.438 195.225 202.157 191.8 208.628Z" fill="#DE2124"/>
<path fill-rule="evenodd" clip-rule="evenodd" d="M361.852 100.115C340.219 144.092 319.751 192.936 300.676 242.129C298.365 248.087 296.213 260.654 290.48 261.064C285.861 261.396 284.06 255.569 281.376 252.326C277.165 247.229 271.888 243.764 269.724 237.76C266.529 228.897 267.376 216.716 267.904 205.352C269.399 173.236 273.687 139.303 275.551 108.855C259.112 157.805 243.797 207.154 228.94 258.152C227.077 264.549 224.399 275.043 215.832 272.717C207.289 270.399 215.735 249.287 216.923 245.043C234.369 182.8 252.029 123.447 273.729 64.7933C275.447 60.1533 277.107 54.6373 279.193 52.048C282.697 47.6973 289.96 46.6119 296.672 43.6733C300.769 41.8786 312.177 35.9693 316.699 40.0306C319.5 42.5493 318.003 53.6533 317.427 60.4226C313.268 109.453 303.061 149.641 302.133 202.438C319.807 154.805 342.699 108.168 364.401 61.8799C367.527 55.2159 371 47.4893 376.053 44.7653C377.867 43.7866 381.167 43.4453 383.7 42.58C389.637 40.5546 396.229 36.5773 401.908 36.3893C411.9 36.0599 408.66 47.2919 407.007 54.2333C390.305 124.284 376.783 196.75 362.581 269.804C361.527 275.229 361.204 282.443 357.483 283.276C351.115 284.704 348.071 277.128 344.372 273.811C340.409 270.254 333.3 267.48 332.357 262.521C331.369 257.326 334.419 246.583 335.269 241.401C343.128 193.545 352.531 146.517 361.852 100.115Z" fill="#DE2124"/>
</svg>
