<svg width="2500" height="2500" viewBox="0 0 2500 2500" fill="none" xmlns="http://www.w3.org/2000/svg">
<path fill-rule="evenodd" clip-rule="evenodd" d="M1607.03 354.477C1537.27 276.645 1421.02 253.235 1324.59 304.517C1228.3 355.722 1182.71 464.927 1207.97 566.169L1607.03 354.477Z" fill="black"/>
<path d="M2223.38 1219.51L1020.25 1859.23L391.376 676.49L1594.49 36.7693L2223.38 1219.51ZM1153.84 1343.17L827.679 1246.3L808.587 1308.78L1133.84 1403.94C1132.16 1404.85 1034.51 1728.89 1034.38 1729.31L1099.45 1749.19L1198.02 1422.13L1531.08 1519.71L1547.57 1456.44L1217.1 1359.69L1316.67 1038.62L1253.31 1017.82L1153.84 1343.17ZM1366.29 965.885L1397.01 1023.66L1617.93 906.197L1852.85 1348.03L1910.63 1317.3L1675.71 875.472L1896.62 758.017L1865.9 700.238L1366.29 965.885ZM898.844 470.193L1104.86 857.638L484.2 690.653L749.847 1190.26L807.627 1159.55L614.261 795.889L1231.3 956.066L956.611 439.468L898.844 470.193ZM1697.17 370.508C1619.89 225.181 1439.42 170.008 1294.1 247.282C1148.75 324.569 1093.58 505.03 1170.86 650.369C1248.13 795.695 1428.61 850.868 1573.93 773.594C1682.93 715.633 1741.22 599.631 1730.93 483.941L1665.85 489.752C1673.88 580.086 1628.35 670.666 1543.25 715.918C1432.65 774.735 1295.95 735.282 1233.24 628.152L1701.53 379.067C1700.14 376.201 1698.66 373.348 1697.17 370.508Z" fill="black"/>
<path fill-rule="evenodd" clip-rule="evenodd" d="M1034.4 1900.54L2208.66 1276.17L2019.99 1856.04L878.027 2463.24L1034.4 1900.54ZM838.638 2445.51L991.033 1895.83L377.511 741.974L276.619 1388.53L838.638 2445.51ZM1931.3 1966.14C1914.53 1966.14 1900.45 1979.32 1900.45 1996.58C1900.43 2000.63 1901.21 2004.65 1902.75 2008.4C1904.3 2012.14 1906.57 2015.55 1909.44 2018.41C1912.31 2021.27 1915.72 2023.54 1919.48 2025.07C1923.23 2026.6 1927.25 2027.38 1931.3 2027.34C1935.34 2027.37 1939.35 2026.59 1943.09 2025.05C1946.83 2023.51 1950.22 2021.24 1953.08 2018.38C1955.93 2015.52 1958.19 2012.12 1959.72 2008.37C1961.24 2004.63 1962.01 2000.62 1961.98 1996.58C1961.98 1979.3 1947.99 1966.14 1931.3 1966.14ZM1931.3 2022.84C1916.97 2022.84 1906.02 2011.56 1906.02 1996.58C1906.02 1981.94 1916.97 1970.65 1931.3 1970.65C1945.44 1970.65 1956.41 1981.94 1956.41 1996.58C1956.41 2011.56 1945.44 2022.84 1931.3 2022.84Z" fill="black"/>
<path fill-rule="evenodd" clip-rule="evenodd" d="M1936.3 1998.78C1941.61 1998.2 1945.7 1995.52 1945.7 1989.04C1945.7 1982.17 1941.69 1978.82 1933.18 1978.82H1919.36V2014.57H1924.93V1999.19H1930.83L1940.56 2014.57H1946.54L1936.3 1998.78ZM1930.72 1994.66H1924.92V1983.28H1932.29C1936.04 1983.28 1940.13 1984.02 1940.13 1988.76C1940.15 1994.4 1935.63 1994.66 1930.72 1994.66Z" fill="black"/>
</svg>
