<svg width="2500" height="2500" viewBox="0 0 2500 2500" fill="none" xmlns="http://www.w3.org/2000/svg">
<path fill-rule="evenodd" clip-rule="evenodd" d="M1118.07 1311.13H1016.04V1184.98H1118.07V1311.13Z" fill="white"/>
<path fill-rule="evenodd" clip-rule="evenodd" d="M1016.04 1184.98H1118.07V1213.32H1016.04V1184.98ZM1016.04 1282.76H1118.07V1311.13H1016.04V1282.76Z" fill="#4F4D67"/>
<path fill-rule="evenodd" clip-rule="evenodd" d="M1118.07 1311.13H1220.1V1184.98H1118.07V1311.13Z" fill="#CA3432"/>
<path fill-rule="evenodd" clip-rule="evenodd" d="M1220.1 1184.98H1118.07V1213.32H1220.1V1184.98ZM1220.1 1282.76H1118.07V1311.13H1220.1V1282.76Z" fill="#4F4D67"/>
<path fill-rule="evenodd" clip-rule="evenodd" d="M61.9825 1311.89V1199.28H19.9475V1184.18H120.956V1199.28H78.921V1311.89H61.9825ZM231.731 1208.92C235.795 1204.94 240.611 1201.79 245.898 1199.68C251.186 1197.56 256.84 1196.52 262.534 1196.6C270.938 1196.6 278.5 1198.74 285.257 1203.01C292.014 1207.28 297.137 1213.28 300.639 1221.04C304.154 1228.79 305.892 1237.86 305.892 1248.26C305.892 1264.68 301.793 1277.38 293.597 1286.32C285.4 1295.25 274.946 1299.73 262.262 1299.73C249.811 1299.73 239.448 1295.29 231.199 1286.45C222.937 1277.59 218.813 1265.49 218.813 1250.09C218.813 1230.86 223.119 1217.13 231.731 1208.92ZM208.709 1281.62C213.396 1291.47 220.862 1299.73 230.187 1305.39C239.629 1311.19 250.355 1314.1 262.352 1314.1C273.175 1314.16 283.834 1311.45 293.311 1306.22C302.87 1300.98 310.276 1293.24 315.49 1283.02C320.703 1272.8 323.31 1261.21 323.31 1248.26C323.31 1235.49 320.833 1224.06 315.879 1213.98C311.165 1204.16 303.646 1195.96 294.271 1190.42C284.829 1184.79 274.22 1181.97 262.443 1181.97C244.467 1181.97 229.798 1187.97 218.437 1199.98C207.075 1211.96 201.407 1228.55 201.407 1249.74C201.407 1260.96 203.833 1271.57 208.709 1281.62ZM416.096 1311.89V1184.17H441.387L471.646 1274.56C474.434 1282.98 476.457 1289.29 477.741 1293.46C479.22 1288.82 481.49 1282 484.589 1273L515.431 1184.17H537.986V1311.89H521.735V1205.07L484.421 1311.89H469.194L432.334 1203.22V1311.89H416.096ZM635.972 1311.89V1184.17H661.276L691.522 1274.56C694.31 1282.98 696.347 1289.29 697.631 1293.46C699.096 1288.82 701.379 1282 704.492 1273L735.334 1184.17H757.888V1311.89H741.637V1205.07L704.323 1311.89H689.084L652.224 1203.22V1311.89H635.972ZM892.32 1311.89V1257.78L843.1 1184.17H863.436L888.61 1222.85C893.241 1229.86 897.615 1237.02 901.723 1244.35C905.653 1237.67 910.322 1230.13 915.73 1221.74L940.464 1184.17H960.139L909.284 1257.78V1311.89H892.32ZM1303.03 1311.89V1184.18H1319.97V1236.67H1386.14V1184.18H1403.12V1311.89H1386.14V1251.76H1319.97V1311.89H1303.03ZM1487.62 1311.89V1184.18H1504.57V1311.89H1487.62ZM1586.97 1311.89V1184.18H1603.92V1296.81H1666.85V1311.89H1586.97ZM1741.04 1311.89V1184.18H1827.41V1199.28H1757.99V1238.76H1818.13V1253.84H1757.99V1311.89H1741.04ZM1905.79 1311.89V1184.18H1922.74V1311.89H1905.79ZM2065.49 1261.85V1246.77H2119.6V1294.16C2111.88 1300.46 2103.22 1305.5 2093.93 1309.09C2085.26 1312.41 2076.05 1314.1 2066.77 1314.1C2054.26 1314.1 2042.88 1311.41 2032.65 1306.06C2022.65 1300.92 2014.52 1292.75 2009.44 1282.72C2004.26 1272.57 2001.61 1261.19 2001.61 1248.64C2001.61 1236.21 2004.22 1224.61 2009.42 1213.81C2014.62 1203.02 2022.09 1195.03 2031.82 1189.79C2041.54 1184.57 2052.79 1181.96 2065.49 1181.96C2074.71 1181.96 2083.05 1183.45 2090.49 1186.45C2097.96 1189.43 2103.79 1193.61 2108.05 1198.95C2112.28 1204.29 2115.5 1211.27 2117.7 1219.86L2102.5 1224.03C2100.58 1217.52 2098.22 1212.4 2095.36 1208.67C2092.52 1204.94 2088.47 1201.96 2083.19 1199.73C2077.62 1197.44 2071.64 1196.29 2065.62 1196.37C2057.89 1196.37 2051.21 1197.55 2045.6 1199.9C2039.95 1202.26 2035.42 1205.36 2032 1209.21C2028.6 1212.94 2025.86 1217.22 2023.92 1221.88C2020.62 1230.07 2018.97 1238.83 2019.06 1247.65C2019.06 1259.07 2021 1268.61 2024.93 1276.3C2028.86 1283.99 2034.53 1289.69 2042.02 1293.42C2049.42 1297.13 2057.59 1299.04 2065.86 1299.01C2073.15 1299.01 2080.3 1297.6 2087.26 1294.77C2094.23 1291.94 2099.49 1288.95 2103.1 1285.72V1261.85H2065.49ZM2198.73 1311.89V1184.18H2290.66V1199.28H2215.68V1238.29H2285.79V1253.39H2215.68V1296.81H2293.7V1311.89H2198.73ZM2387.66 1198.35H2428.08C2437.55 1198.35 2444.5 1200.29 2448.89 1204.19C2453.27 1208.08 2455.47 1213.06 2455.47 1219.09C2455.47 1223.22 2454.33 1227.03 2452.08 1230.55C2449.71 1234.14 2446.22 1236.84 2442.14 1238.22C2437.76 1239.82 2431.73 1240.62 2424.01 1240.62H2387.66V1198.35ZM2387.66 1311.89V1255.24H2407.27C2411.62 1255.24 2414.76 1255.43 2416.67 1255.85C2419.3 1256.48 2421.88 1257.61 2424.4 1259.25C2426.93 1260.87 2429.79 1263.72 2432.99 1267.78C2436.18 1271.84 2440.24 1277.69 2445.19 1285.34L2462.06 1311.89H2483.19L2461.08 1277.16C2457.15 1270.93 2452.46 1265.23 2447.1 1260.19C2444.76 1258.09 2441.38 1255.98 2436.92 1253.83C2449.17 1252.15 2458.22 1248.2 2464.1 1241.97C2469.98 1235.75 2472.89 1228.11 2472.89 1219.04C2472.89 1212 2471.12 1205.58 2467.6 1199.77C2464.36 1194.23 2459.36 1189.95 2453.39 1187.6C2447.46 1185.32 2438.8 1184.17 2427.42 1184.17H2370.73V1311.89H2387.66Z" fill="black"/>
</svg>
