<svg width="2500" height="2500" viewBox="0 0 2500 2500" fill="none" xmlns="http://www.w3.org/2000/svg">
<g clip-path="url(#clip0_2_118)">
<path d="M0.0100098 2500H2500.01V0H0.0100098V2500Z" fill="#E60012"/>
<path d="M1421.36 1104.98H2131.35V947.988H1421.36V1104.98ZM1499.86 500.075H2052.85V342.077H1499.86V500.075ZM921.401 342.077H446.902V500.075H762.9V947.988H368.659V1104.98H1079.15V947.988H921.401V342.077ZM1973.35 2000.05H1578.6V1552.89H1973.35V2000.05ZM2131.35 1394.39H1421.36V2158.18H2131.35V1394.39V1394.39ZM446.902 1394.39L366.391 1776.79H524.139L571.889 1552.89H888.644L795.911 2000.05H320.656L289.66 2158.18H921.401L1079.15 1394.39H446.902Z" fill="white"/>
</g>
<defs>
<clipPath id="clip0_2_118">
<rect width="2500" height="2500" fill="white"/>
</clipPath>
</defs>
</svg>
