<svg width="2500" height="583" viewBox="0 0 2500 583" fill="none" xmlns="http://www.w3.org/2000/svg">
<g clip-path="url(#clip0_2_111)">
<path d="M508.9 501.4C508.9 540.7 476.1 572.6 451.4 572.6H172.1L523.4 11.4H53.6999V104.4H77.7999C77.7999 65.1 103.2 33.3 128 33.3H369.3L15.8999 594.4H525.5V501.4H508.9Z" fill="black"/>
<path d="M1118.4 549L846.6 11.4L597.5 549.4C593.1 561.2 569.1 576.1 535.1 576.1V594.3H667.7V576.1C643.1 576.1 616.7 563.9 623.1 549.3L683 419.4H912.8L978.1 549C985.5 562.1 952.4 576.2 918.3 576.2V594.4H1194.3L1194.4 576.2C1152.6 576.1 1127.1 563.1 1118.4 549ZM693 398.4L792.4 180.2L903.4 398.4H693Z" fill="black"/>
<path d="M1226 33.9C1266.4 33.9 1299.8 44.3 1299.8 56.9C1299.8 156.9 1299.6 548.4 1299.8 548.4C1299.8 561.8 1266.9 576.7 1226.4 576.7L1226.3 594.3H1496.5V577.9C1456.4 577.9 1423.9 561.9 1423.9 548.5V29H1501.8C1576.8 29 1637.6 91.3 1637.6 162C1637.6 232.7 1576.8 290.1 1501.7 290.1H1447.8C1447.8 290.1 1630.4 566.6 1630.7 566.6C1637.9 577.1 1641.5 594.4 1641.5 594.4H1838.4V578C1800.5 578 1780.7 562.3 1769.7 548.5L1593.9 319.1C1678.3 313.5 1743.6 245.3 1743.6 164.3C1743.6 79.7 1670.9 11.4 1581.2 11.4H1226V33.9Z" fill="black"/>
<path d="M2440 549L2168.2 11.4L1919.1 549.4C1914.7 561.2 1890.8 576.7 1856.7 576.7V594.3H1989.3V577.9C1964.7 577.9 1938.4 563.9 1944.7 549.3L2004.6 419.4H2234.4L2299.7 549C2307.2 562.1 2274 576.8 2239.9 576.8V594.4H2515.9L2516 577.4C2474.2 577.4 2448.7 563.1 2440 549ZM2014.5 398.4L2113.9 180.2L2224.9 398.4H2014.5Z" fill="black"/>
</g>
<defs>
<clipPath id="clip0_2_111">
<rect width="2500" height="583" fill="white"/>
</clipPath>
</defs>
</svg>
