<?xml version="1.0" encoding="utf-8"?>
<!-- Generator: Adobe Illustrator 19.2.1, SVG Export Plug-In . SVG Version: 6.00 Build 0)  -->
<svg version="1.1" id="layer" xmlns="http://www.w3.org/2000/svg" xmlns:xlink="http://www.w3.org/1999/xlink" x="0px" y="0px"
	 viewBox="0 0 652 652" style="enable-background:new 0 0 652 652;" xml:space="preserve">
<style type="text/css">
	.st0{fill:#1D1D1B;}
	.st1{fill:#E40E2E;}
</style>
<path class="st0" d="M462,359.3c6.6,0,11.9-5.1,11.9-11.3s-5.3-11.3-11.9-11.3c-6.6,0-11.9,5.1-11.9,11.3S455.4,359.3,462,359.3
	 M462,305.7c-6.6,0-11.9-5.1-11.9-11.3S455.4,283,462,283c6.6,0,11.9,5.1,11.9,11.3S468.6,305.7,462,305.7"/>
<path class="st1" d="M621.9,375.3V267.1h-18.2v64.2l-7.1-17.2l-19.9-47h-17.4v108.2h18.5v-63.4l7.6,17.2l20.9,46.2H621.9
	L621.9,375.3z M526.9,349.5v-56.6c0-6.3-3.7-10.6-10.4-10.6c-6.5,0-10.2,4.2-10.2,10.6v56.6c0,6.3,3.7,10.6,10.2,10.6
	C523.2,360,526.9,355.8,526.9,349.5L526.9,349.5z M547.2,348.2c0,17.2-11.7,29.6-30.7,29.6c-18.8,0-30.6-12.3-30.6-29.6v-54
	c0-17.1,11.8-29.4,30.6-29.4c19,0,30.7,12.3,30.7,29.4V348.2L547.2,348.2z M439.3,375.3V267.1h-18.2v64.2L414,314l-19.9-47h-17.4
	v108.2h18.5v-63.4l7.6,17.2l20.9,46.2H439.3L439.3,375.3z M344.4,349.5v-56.6c0-6.3-3.7-10.6-10.4-10.6c-6.5,0-10.2,4.2-10.2,10.6
	v56.6c0,6.3,3.7,10.6,10.2,10.6C340.6,360,344.4,355.8,344.4,349.5L344.4,349.5z M364.6,348.2c0,17.2-11.7,29.6-30.7,29.6
	c-18.8,0-30.6-12.3-30.6-29.6v-54c0-17.1,11.8-29.4,30.6-29.4c19,0,30.7,12.3,30.7,29.4V348.2L364.6,348.2z M294.1,284.9v-17.9h-60
	v17.9H254v90.4h20.3v-90.4H294.1z M224.9,284.9v-17.9h-60v17.9h19.9v90.4h20.3v-90.4H224.9z M135.4,349.5v-56.6
	c0-6.3-3.7-10.6-10.4-10.6c-6.5,0-10.2,4.2-10.2,10.6v56.6c0,6.3,3.7,10.6,10.2,10.6C131.6,360,135.4,355.8,135.4,349.5L135.4,349.5
	z M155.6,348.2c0,17.2-11.7,29.6-30.7,29.6c-18.8,0-30.7-12.3-30.7-29.6v-54c0-17.1,11.8-29.4,30.7-29.4c19,0,30.7,12.3,30.7,29.4
	V348.2L155.6,348.2z M82.2,349.5c0,16.3-10.1,28.3-29.2,28.3c-19.3,0-31.1-13-31.1-29.7v-53.6c0-16.7,11.8-29.7,31.1-29.7
	c19.1,0,29.2,12,29.2,28.3v13.2h-18v-13c0-6.3-3.6-10.7-10.9-10.7c-7.3,0-11,4.4-11,10.4v56.9c0,6,3.7,10.4,11,10.4
	s10.9-4.4,10.9-10.7v-13h18L82.2,349.5L82.2,349.5z"/>
</svg>
