<svg width="800" height="800" viewBox="0 0 800 800" fill="none" xmlns="http://www.w3.org/2000/svg">
<path d="M693.175 560.917C690.157 559.311 686.969 558.467 683.745 558.467C680.429 558.467 677.385 559.311 674.374 560.917C671.255 562.679 668.93 565.019 667.081 568.18C665.355 571.326 664.616 574.627 664.616 577.987C664.616 581.363 665.355 584.565 667.081 587.68C668.836 590.795 671.141 593.225 674.218 594.888C677.282 596.65 680.354 597.472 683.741 597.472C687.062 597.491 690.324 596.597 693.171 594.888C696.213 593.227 698.686 590.795 700.225 587.678C701.946 584.565 702.775 581.363 702.775 577.987C702.775 574.627 701.94 571.326 700.223 568.18C698.576 565.021 696.19 562.673 693.175 560.917ZM697.6 586.023C696.087 588.604 694.08 590.621 691.563 592.071C689.096 593.555 686.479 594.281 683.741 594.281C680.957 594.289 678.225 593.525 675.85 592.073C673.338 590.644 671.267 588.551 669.865 586.023C668.494 583.554 667.868 580.865 667.868 577.991C667.868 575.206 668.569 572.431 669.944 569.845C671.328 567.228 673.385 565.237 675.907 563.834C678.443 562.402 681.059 561.719 683.745 561.719C686.414 561.719 689.003 562.398 691.567 563.834C694.009 565.242 695.945 567.228 697.604 569.845C698.928 572.355 699.613 575.153 699.599 577.991C699.595 580.867 698.965 583.554 697.6 586.023ZM687.04 580.514C686.538 580.019 685.934 579.638 685.27 579.401C687.04 579.23 688.551 578.574 689.655 577.46C690.71 576.32 691.18 574.957 691.18 573.454C691.18 572.395 690.87 571.321 690.24 570.349C689.623 569.426 688.722 568.728 687.674 568.36C686.57 567.99 684.81 567.832 682.522 567.832H675.358V588.725H678.665V579.959H680.61C681.813 579.925 682.594 580.109 683.271 580.622C684.095 581.26 685.27 582.884 686.73 585.426L688.553 588.727H692.634L690.157 584.672C688.861 582.748 687.905 581.359 687.038 580.512M682.643 576.932H678.661V570.643H682.517C684.087 570.643 685.195 570.756 685.732 571.006C686.41 571.322 686.965 571.644 687.19 572.083C687.54 572.622 687.664 573.187 687.664 573.788C687.664 574.825 687.34 575.506 686.651 576.126C685.936 576.587 684.642 576.932 682.643 576.932ZM281.863 326.386C269.148 326.386 264.666 338.282 264.666 350.082H298.981C298.981 336.903 294.659 326.386 281.863 326.386ZM0 202.532L76.6744 565.019L82.5053 562.005C164.059 519.17 245.487 521.728 299.362 531.435C357.995 541.93 397.699 562.852 398.177 562.995L400.304 564.2L402.491 563.149C498.746 520.342 578.238 522.809 627.959 532.385C681.809 542.821 713.406 563.644 713.732 563.883L719.793 567.899L721.353 560.719L800 202.532H0ZM211.443 423.573H98.5499V304.687H143.496V393.215H211.443V423.573ZM284.063 427.664C238.007 427.664 213.606 403.868 213.606 364.14C213.606 324.423 239.002 300.678 281.515 300.678C326.858 300.678 349.404 329.713 349.404 364.14C349.404 366.862 349.207 369.464 348.838 371.431H263.022C263.022 388.334 272.47 398.69 287.463 398.69C300.284 398.69 310.09 395.058 312.174 384.533H349.616C345.075 411.747 325.944 427.664 284.063 427.664ZM432.934 423.777H395.968L336.966 303.644H388.735L420.395 373.011H421.215L452.901 303.644H490.046L432.932 423.775L432.934 423.777ZM541.76 423.518H496.798V303.413H541.76V423.518ZM583.275 313.051L567.7 331.872H561.272L568.326 311.386H554.08V284.008H583.279L583.275 313.051ZM641.888 426.216C600.685 426.216 585.377 408.089 585.377 386.139V385.446H623.034C623.034 395.842 631.236 401.098 642.767 401.098C652.95 401.098 658.179 397.719 658.179 391.251C658.179 374.127 586.396 390.53 586.396 342.127C586.396 316.225 610.568 301.049 648.326 301.049C681.932 301.049 702.313 317.724 702.313 337.622H667.838C667.838 331.88 660.648 326.145 648.407 326.145C635.949 326.145 631.111 330.546 631.111 334.426C631.111 353.306 706.179 334.789 706.179 384.047C706.169 407.771 688.383 426.216 641.89 426.216" fill="#C41230"/>
</svg>
