<svg width="340" height="699" viewBox="0 0 340 699" fill="none" xmlns="http://www.w3.org/2000/svg">
<path d="M242.338 618.753C242.948 608.89 242.745 605.636 241.412 604.03C240.401 602.809 239.684 599.002 239.655 594.683C239.611 588.14 238.733 585.697 231.055 570.777C222.864 554.85 222.57 553.981 224.026 549.953C225.382 546.194 225.189 544.931 222.222 538.081C219.261 531.249 217.929 529.76 210 524.404C194.618 514.015 182.255 503.423 161.668 483C138.684 460.192 119.601 435.114 101.905 404.459C95.7608 393.816 95.2797 393.374 89.852 393.346C85.7769 393.325 80.8832 389.767 80.9016 386.834C80.9065 385.984 75.9194 374.99 69.8191 362.406C53.9877 329.747 52.6339 322.792 57.4749 299.012C60.3483 284.912 60.8883 283.645 66.8806 277.005C73.2424 269.96 72.2445 267.976 61.8249 266.946C47.9046 265.566 48.047 265.653 45.1613 256.714C43.7424 252.318 42.5812 247.335 42.5812 245.642C42.5812 240.032 48.9467 222.278 57.6983 203.477C62.4459 193.274 68.534 179.36 71.2257 172.557C80.8034 148.347 94.0166 128.99 104.685 123.542C108.951 121.364 117.241 119.726 141.911 116.185C155.643 114.213 156.611 113.214 158.583 98.9697C159.731 90.6853 159.617 89.3868 157.449 85.8736C155.885 83.343 155.041 79.761 155.041 75.6605C155.041 69.8944 155.364 69.1782 158.749 67.4265C162.021 65.7337 162.457 64.8652 162.457 60.0351C162.457 48.4806 164.785 42.0474 171.265 35.7407C172.812 34.2421 174.314 32.6978 175.77 31.1096H90.9162C62.0937 31.1096 38.7259 54.495 38.7259 83.3418V615.965C38.7259 644.811 62.0925 668.199 90.9162 668.199H246.167C245.643 667.043 244.548 665.171 243.278 663.317C239.746 658.171 239.785 659.978 242.338 618.753Z" fill="#0E499D"/>
<path d="M249.464 31.1096H204.522C204.963 31.6342 205.599 32.198 206.372 32.7053C211.93 36.3488 220.36 45.1258 221.705 48.6674C223.729 53.9999 223.274 61.0829 220.416 68.731C218.774 73.1214 218.083 77.0499 218.547 79.3642C219.421 83.7386 215.128 93.0119 210.046 97.729C208.213 99.4291 205.616 102.962 204.274 105.581C202.933 108.199 199.603 112.765 196.878 115.725C194.153 118.686 192.104 122.054 192.332 123.21C192.558 124.367 195.801 126.96 199.539 128.974C203.279 130.987 208.875 134.938 211.979 137.753C215.08 140.569 221.344 145.507 225.897 148.727C242.254 160.3 250.104 180.088 250.185 209.961C250.22 223.198 256.672 254.224 261.293 263.387C267.623 275.936 269.915 282.855 271.896 295.378C274.439 311.472 274.516 311.654 279.63 313.791C284.516 315.835 297.173 326.118 297.173 328.046C297.173 328.709 298.425 331.006 299.953 333.152L301.66 335.544V83.3406C301.655 54.4937 278.288 31.1096 249.464 31.1096ZM300.876 380.859C300.876 381.485 298.125 385.01 294.763 388.693C271.314 414.366 231.183 408.647 216.451 377.526C212.887 369.994 212.515 368.102 212.515 357.46C212.515 347.3 212.964 344.752 215.827 338.637C220.404 328.864 229.141 319.911 238.691 315.204C243.036 313.064 246.849 310.9 247.158 310.393C247.47 309.889 243.548 301.029 238.441 290.703C226.678 266.915 225.285 262.661 219.948 234.246C217.534 221.403 215.311 210.201 215.003 209.35C214.015 206.612 210.562 207.68 202.023 213.36L193.669 218.917L186.098 238.109C181.936 248.662 178.528 258.866 178.528 260.781C178.528 262.937 179.753 265.409 181.735 267.264C186.683 271.891 188.018 275.289 196.404 304.605C202.583 326.201 203.96 332.51 202.976 334.678C202.029 336.751 202.643 341.303 205.488 353.314C209.671 370.989 211.231 380.355 213.182 399.51C215.159 418.955 217.251 425.115 228.507 444.654C235.991 457.64 238.289 465.467 243.543 495.87C245.954 509.822 248.388 522.102 248.954 523.159C249.521 524.215 251.97 528.037 254.397 531.647C261.072 541.576 262.08 546.145 259.68 555.699C258.583 560.064 257.343 566.639 256.923 570.312C256.08 577.663 258.739 595.468 261.757 602.7C262.777 605.14 263.331 608.205 262.991 609.512C262.648 610.819 264.077 617.352 266.161 624.029C272.682 644.909 272.394 653.766 264.883 663.258C263.538 664.958 262.815 665.925 262.384 666.577C284.958 660.823 301.655 640.346 301.655 615.962V379.809C301.202 379.977 300.876 380.381 300.876 380.859Z" fill="#D30529"/>
<path d="M57.2981 550.627H78.3964L90.5675 604.475H90.7713V550.627H108.42V638.007H87.7285L75.151 584.036H74.9473V638.007H57.2981V550.627ZM117.555 550.627H146.06C159.55 550.627 165.838 559.316 165.838 572.409C165.838 581.71 162.49 590.033 154.479 591.989V592.234C164.013 593.334 167.869 603.126 167.869 612.181C167.869 627.356 161.783 638.003 146.06 638.003H117.555V550.627ZM136.422 584.894H140.988C144.842 584.894 146.973 580.733 146.973 576.082C146.973 571.187 144.842 567.026 140.988 567.026H136.422V584.894ZM136.422 621.607H141.697C145.146 621.607 148.392 617.936 148.392 610.837C148.392 604.106 145.145 600.313 141.697 600.313H136.422V621.607ZM186.646 550.627H210.382L228.031 638.007H207.945L206.018 622.709H191.007L189.081 638.007H168.993L186.646 550.627ZM198.613 568.494H198.412L193.238 605.577H203.787L198.613 568.494Z" fill="white"/>
</svg>
